<svg version="1" xmlns="http://www.w3.org/2000/svg" width="1365.333" height="1365.333" viewBox="0 0 1024.000000 1024.000000"><path d="M485.9 120.4c-.2.2-4 .7-8.4 1-4.4.4-9.3.9-11 1.1-8.4 1.1-12.3 1.6-14.8 2-1.5.2-4.7.7-7 1-2.3.4-7 1.3-10.3 2-3.4.8-7.3 1.6-8.5 1.9-19.5 3.6-55.9 16-77.9 26.4-4.1 1.9-7.7 3.6-8 3.7-1.3.3-19.4 10-27.5 14.8-6.2 3.6-23.8 14.9-24.5 15.7-.3.3-3.5 2.7-7.2 5.3-13.1 9.2-29.5 23.3-43.9 37.7-12.8 12.8-17.1 17.3-26.3 28-9.3 10.7-26.4 35-36.2 51.3-7.1 11.7-22.1 42.3-26.9 54.7-5.6 14.3-13.4 38.3-15 46-.2.8-1 4.1-1.9 7.3-.8 3.2-1.8 7.7-2.1 10-.4 2.3-.8 4.4-1 4.8-.5.7-2.3 12-4 23.9-.4 2.5-.8 5.6-1.1 7-2.6 15.2-2.6 78.2.1 90.9.2 1.3.7 4.7 1 7.5 1.6 16.3 6.8 40.3 13 60.6 1.5 4.7 2.8 8.9 2.9 9.5.9 3.8 2.1 7.3 5 13.8.9 2.1 1.6 4.2 1.6 4.8 0 .6.8 2.9 1.9 5.2 1 2.3 3.3 7.6 5.1 11.7 7.6 17.6 22.1 44 33.2 60.5 4.5 6.6 20.8 28.7 21.9 29.5.3.3 3 3.4 6 7 6.3 7.7 32.8 34.4 41.5 41.9 21.1 18 46.4 35.4 71.1 48.7 8.6 4.6 15.9 8.4 16.3 8.4.3 0 3.5 1.4 7.1 3.1 3.5 1.7 8.6 4 11.4 5.1 2.7 1.1 6.1 2.5 7.5 3.1 1.4.5 3 1.2 3.5 1.3.6.2 7.5 2.6 15.5 5.3 13.4 4.6 33.7 10.2 42 11.6 1.9.3 5.1 1 7 1.5 1.9.5 7 1.4 11.3 2 4.3.6 8.8 1.3 10 1.5 2.4.4 7.4 1 18.2 2.2 14.9 1.6 67 .8 82.3-1.3 13.7-1.8 22.7-3.3 27.7-4.4 2.2-.5 5.6-1.2 7.5-1.5 1.9-.3 5.3-1.1 7.5-1.6 2.2-.6 4.7-1.2 5.5-1.4 17.2-3.3 65.6-21.2 80.5-29.7 1-.6 5.5-3 10-5.3 45.8-23.8 91.9-62.9 124.9-106 4.2-5.5 8-10.5 8.4-11 2.1-2.7 15.2-22.5 15.2-23 0-.4 1.4-2.7 3.1-5.2 4-5.8 19.5-36.3 23.8-46.8 1.8-4.4 3.9-9.4 4.7-11 2.7-6 11.3-33.3 14.2-45 5.6-22.3 9.4-44.3 11-64 1.4-18.2.7-69.1-1.2-79.2-.2-1-.7-4.1-1-6.8-.7-5.8-1.7-12.1-2.2-15-.3-1.1-.7-3.6-1-5.5-.3-1.9-2.1-10-4-18-14.1-59.4-40.7-112.2-81.1-161.2-20.8-25.4-64.7-64.1-87.5-77.3-1-.6-5.7-3.5-10.5-6.5-21.4-13.4-58.8-30.2-85.3-38.4-12.9-4-38.3-10.2-44.9-11.1-2.3-.3-4.6-.7-5-.9-.3-.2-2.8-.6-5.6-1-2.7-.3-5.9-.8-7-1-1.1-.2-5.1-.7-9-1.1-3.8-.4-8.1-.9-9.5-1.2-2.7-.5-61.6-1.4-62.1-.9z"/></svg>